<?xml version="1.0" standalone="no"?><!DOCTYPE svg PUBLIC "-//W3C//DTD SVG 1.1//EN" "http://www.w3.org/Graphics/SVG/1.1/DTD/svg11.dtd"><svg t="1558514861778" class="icon" style="" viewBox="0 0 1024 1024" version="1.1" xmlns="http://www.w3.org/2000/svg" p-id="2128" xmlns:xlink="http://www.w3.org/1999/xlink" width="128" height="128"><defs><style type="text/css"></style></defs><path d="M873.233 308L526.333 654.8c-13.1 13.1-34.3 13.1-47.3 0l-147.1-147c-13.1-13.1-13.1-34.3 0-47.3 13.1-13.1 34.3-13.1 47.3 0l123.3 123.4 332.4-332.3c-9.9-12.3-20.4-24.1-31.7-35.3-78.5-77.9-182-120.8-291.9-120.8h-2.9c-113.3 0.8-218.9 44.6-297.6 123.5-78.7 78.7-121.6 183.7-121 295.3C91.133 745 278.933 932.9 508.533 932.9c230.8 0 418.7-187.8 418.7-418.7 0-73.5-18.9-144-54-206.2z" p-id="2129" fill="#ff8200"></path></svg>