<?xml version="1.0" standalone="no"?><!DOCTYPE svg PUBLIC "-//W3C//DTD SVG 1.1//EN" "http://www.w3.org/Graphics/SVG/1.1/DTD/svg11.dtd"><svg t="1555398556939" class="icon" style="" viewBox="0 0 1024 1024" version="1.1" xmlns="http://www.w3.org/2000/svg" p-id="7768" xmlns:xlink="http://www.w3.org/1999/xlink" width="64" height="64"><defs><style type="text/css"></style></defs><path d="M662.857 685.898c-5.911 0-11.8-2.192-16.306-6.708L344.806 377.495c-8.999-8.999-8.999-23.597 0-32.598s23.597-8.999 32.598 0l301.745 301.695c8.999 8.998 8.999 23.597 0 32.598-4.498 4.497-10.393 6.708-16.306 6.708h0.014z m-301.745 0c-5.911 0-11.8-2.192-16.306-6.708-8.999-8.999-8.999-23.598 0-32.598l301.745-301.694c8.999-9 23.597-9 32.598 0 9 8.998 8.999 23.597 0 32.597L377.404 679.19c-4.502 4.497-10.393 6.708-16.306 6.708h0.014z m150.886 273.173c-246.499 0-447.096-200.545-447.096-447.085 0-246.5 200.58-447.06 447.096-447.06 246.5 0 447.097 200.574 447.097 447.06 0 246.54-200.58 447.085-447.097 447.085z m0-848.05c-221.102 0-400.996 179.869-400.996 400.96s179.897 400.996 400.996 400.996c221.102 0 400.997-179.899 400.997-400.997 0-221.102-179.897-400.96-400.997-400.96z" p-id="7769" fill="#ffffff"></path></svg>