<?xml version="1.0" standalone="no"?><!DOCTYPE svg PUBLIC "-//W3C//DTD SVG 1.1//EN" "http://www.w3.org/Graphics/SVG/1.1/DTD/svg11.dtd"><svg t="1550115563901" class="icon" style="" viewBox="0 0 1024 1024" version="1.1" xmlns="http://www.w3.org/2000/svg" p-id="1156" xmlns:xlink="http://www.w3.org/1999/xlink" width="64" height="64"><defs><style type="text/css"></style></defs><path d="M969.6 502.4l-118.4-112L528 89.6c-9.6-9.6-22.4-9.6-32 0L182.4 387.2l-9.6 9.6-118.4 112c-9.6 9.6-9.6 22.4 0 32s22.4 9.6 32 0l83.2-80v393.6c0 48 41.6 89.6 92.8 89.6h83.2c38.4 0 70.4-28.8 70.4-67.2V659.2h198.4v217.6c0 35.2 32 67.2 70.4 67.2H768c51.2 0 92.8-38.4 92.8-89.6V457.6l80 73.6c9.6 9.6 22.4 9.6 32 0 6.4-6.4 6.4-19.2-3.2-28.8z m-160 355.2c0 25.6-19.2 44.8-44.8 44.8h-83.2c-12.8 0-22.4-9.6-22.4-22.4V640c0-12.8-9.6-22.4-22.4-22.4H393.6c-12.8 0-22.4 9.6-22.4 22.4v240c0 12.8-9.6 22.4-22.4 22.4h-83.2c-25.6 0-44.8-19.2-44.8-44.8V419.2l294.4-281.6 294.4 281.6v438.4z" fill="#2c2c2c" p-id="1157"></path></svg>