<?xml version="1.0" standalone="no"?><!DOCTYPE svg PUBLIC "-//W3C//DTD SVG 1.1//EN" "http://www.w3.org/Graphics/SVG/1.1/DTD/svg11.dtd"><svg t="1555642854398" class="icon" style="" viewBox="0 0 1024 1024" version="1.1" xmlns="http://www.w3.org/2000/svg" p-id="1967" xmlns:xlink="http://www.w3.org/1999/xlink" width="64" height="64"><defs><style type="text/css"></style></defs><path d="M525.733 140.202c-10.515-4.998-23.069-3.672-32.257 3.572-0.407 0.412-45.218 35.395-94.621 71.302-85.94 62.425-110.953 72.834-116.052 74.461H148.574c-25.103 0-47.258 10.303-62.152 28.97-12.872 16.12-19.709 37.233-19.709 60.999v264.918c0 49.57 40.833 89.968 91.049 89.968h37.768c16.839 0 30.519-13.468 30.519-30.095s-13.68-30.09-30.519-30.09h-37.768c-16.538 0-30.006-13.368-30.006-29.683V379.611c0-11.116 2.658-29.683 20.818-29.683h136.268c15.619 0 39.702-6.324 144.331-82.017a2679.621 2679.621 0 0 0 52.663-38.961V790.9a2140.04 2140.04 0 0 0-41.435-33.862c-95.741-76.506-119.429-82.936-135.454-82.936-16.839 0-30.519 13.468-30.519 30.095 0 15.808 12.253 28.764 27.972 29.99 4.385 1.527 27.56 11.629 105.136 74.054 44.399 35.707 84.201 70.488 84.614 70.895a30.877 30.877 0 0 0 20.311 7.651c4.285 0 8.475-0.819 12.454-2.652 11.022-4.892 18.065-15.608 18.065-27.437V167.339c-0.001-11.535-6.644-22.138-17.247-27.137z m236.288 51.415c-14.9-7.857-33.377-2.246-41.34 12.437-7.957 14.694-2.24 32.954 12.66 40.705 100.439 52.735 162.908 154.745 162.908 266.44s-62.47 213.704-162.908 266.445c-14.9 7.846-20.517 26.005-12.66 40.799 5.516 10.203 16.031 16.014 26.947 16.014 4.803 0 9.701-1.12 14.293-3.572 120.549-63.138 195.366-185.654 195.366-319.687 0.095-134.039-74.717-256.443-195.266-319.581z m3.878 431.683c21.029-33.561 32.263-72.321 32.263-112.101s-11.128-78.546-32.263-112.107c-20.506-32.636-49.604-59.06-84.001-76.194-15.006-7.55-33.377-1.633-41.028 13.256-7.662 14.894-1.638 32.954 13.468 40.499 51.03 25.504 82.78 77.019 82.78 134.546 0 57.533-31.75 109.048-82.78 134.546-15 7.545-21.024 25.604-13.468 40.493 5.399 10.509 16.126 16.527 27.248 16.527 4.692 0 9.389-1.02 13.78-3.26 34.398-17.14 63.496-43.558 84.001-76.205z m0 0" p-id="1968" fill="#ff8200"></path></svg>