<?xml version="1.0" standalone="no"?><!DOCTYPE svg PUBLIC "-//W3C//DTD SVG 1.1//EN" "http://www.w3.org/Graphics/SVG/1.1/DTD/svg11.dtd"><svg t="1555555561923" class="icon" style="" viewBox="0 0 1024 1024" version="1.1" xmlns="http://www.w3.org/2000/svg" p-id="2201" xmlns:xlink="http://www.w3.org/1999/xlink" width="128" height="128"><defs><style type="text/css"></style></defs><path d="M870.263 190.409c-10.737-9.75-24.877-15.084-39.5-15.084-1.333 0-2.666 0-3.998 0.092-0.807 0.091-10.118 0.646-24.67 0.646-24.116 0-71.2-1.656-115.803-12.23-57.59-13.704-124.056-77.16-143.393-89.667-9.748-6.343-20.967-9.47-32.21-9.47-11.195 0-22.415 3.127-32.14 9.38-2.345 1.563-71.939 73.569-140.012 89.757-44.579 10.574-92.56 12.23-116.655 12.23-14.554 0-23.84-0.555-24.76-0.646-1.264-0.092-2.529-0.092-3.816-0.092-14.646 0-28.83 5.334-39.613 15.084-11.702 10.575-18.369 25.38-18.369 40.922v140.058c0 517.75 350.285 584.422 365.136 587.086 3.403 0.555 6.828 0.83 10.254 0.83 3.403 0 6.874-0.275 10.23-0.83 14.874-2.665 367.733-69.338 367.733-587.086V231.33c0-15.542-6.69-30.346-18.414-40.922zM740.78 390.7L497.931 625.666c-1.518 2.48-3.38 4.968-5.633 7.082-7.128 6.897-16.553 10.207-25.889 10.023-9.332 0.184-18.738-3.126-25.863-10.023-2.252-2.114-4.137-4.601-5.655-7.082l-129.78-125.62c-13.82-13.337-13.82-34.946 0-48.374 13.816-13.331 36.23-13.331 50.05 0l111.25 107.69 224.342-217.03c13.819-13.336 36.21-13.336 50.027 0 13.817 13.33 13.817 35.036 0 48.369z" p-id="2202" fill="#2f86f6"></path></svg>