<?xml version="1.0" standalone="no"?><!DOCTYPE svg PUBLIC "-//W3C//DTD SVG 1.1//EN" "http://www.w3.org/Graphics/SVG/1.1/DTD/svg11.dtd"><svg t="1555398495489" class="icon" style="" viewBox="0 0 1029 1024" version="1.1" xmlns="http://www.w3.org/2000/svg" p-id="6725" xmlns:xlink="http://www.w3.org/1999/xlink" width="64.3125" height="64"><defs><style type="text/css"></style></defs><path d="M514.864959 0.00407a511.997965 511.997965 0 1 0 514.864959 511.997965A513.410962 513.410962 0 0 0 514.864959 0.00407z m0 960.048059A448.090094 448.090094 0 1 1 963.375053 511.971035a448.275094 448.275094 0 0 1-448.509094 448.091094z m234.699526-612.349762a33.351933 33.351933 0 0 0-47.000905 0l-258.149478 257.933479-117.247763-117.113764a33.228933 33.228933 0 0 0-46.898906 0 33.115933 33.115933 0 0 0 0 46.939906l137.419723 137.296722a30.913938 30.913938 0 0 0 2.969994 3.522993 33.996931 33.996931 0 0 0 47.513904 0 31.927935 31.927935 0 0 0 3.071993-3.522993l278.322438-278.116438a33.299933 33.299933 0 0 0 0-46.949905z" p-id="6726" fill="#ffffff"></path></svg>