<?xml version="1.0" standalone="no"?><!DOCTYPE svg PUBLIC "-//W3C//DTD SVG 1.1//EN" "http://www.w3.org/Graphics/SVG/1.1/DTD/svg11.dtd"><svg t="1555398586955" class="icon" style="" viewBox="0 0 1024 1024" version="1.1" xmlns="http://www.w3.org/2000/svg" p-id="8793" xmlns:xlink="http://www.w3.org/1999/xlink" width="64" height="64"><defs><style type="text/css"></style></defs><path d="M983.04 312.32c-25.6-61.44-61.44-115.2-110.08-161.28-46.08-46.08-102.4-84.48-161.28-110.08C647.68 12.8 581.12 0 512 0c-69.12 0-135.68 12.8-199.68 40.96C253.44 66.56 197.12 102.4 151.04 148.48c-46.08 46.08-84.48 102.4-110.08 161.28-25.6 64-40.96 130.56-40.96 199.68 0 69.12 12.8 135.68 40.96 199.68 25.6 61.44 61.44 115.2 110.08 161.28 46.08 46.08 102.4 84.48 161.28 110.08 64 25.6 130.56 40.96 199.68 40.96 69.12 0 135.68-12.8 199.68-40.96 61.44-25.6 115.2-61.44 161.28-110.08 46.08-46.08 84.48-102.4 110.08-161.28 25.6-64 40.96-130.56 40.96-199.68C1024 442.88 1011.2 373.76 983.04 312.32L983.04 312.32zM919.04 680.96c-23.04 51.2-53.76 99.84-94.72 140.8-40.96 40.96-87.04 71.68-140.8 94.72-53.76 23.04-112.64 33.28-171.52 33.28-58.88 0-117.76-12.8-171.52-33.28-51.2-23.04-99.84-53.76-140.8-94.72s-71.68-87.04-94.72-140.8c-23.04-53.76-33.28-112.64-33.28-171.52 0-58.88 12.8-117.76 33.28-171.52 23.04-51.2 53.76-99.84 94.72-140.8 40.96-40.96 87.04-71.68 140.8-94.72 53.76-23.04 112.64-33.28 171.52-33.28 58.88 0 117.76 12.8 171.52 33.28 51.2 23.04 99.84 53.76 140.8 94.72 40.96 40.96 71.68 87.04 94.72 140.8 23.04 53.76 33.28 112.64 33.28 171.52C952.32 570.88 939.52 627.2 919.04 680.96L919.04 680.96z" p-id="8794" fill="#ffffff"></path><path d="M506.88 243.2c-20.48 0-38.4 17.92-38.4 38.4l0 294.4c0 20.48 17.92 38.4 38.4 38.4 20.48 0 38.4-17.92 38.4-38.4L545.28 281.6C547.84 261.12 529.92 243.2 506.88 243.2L506.88 243.2z" p-id="8795" fill="#ffffff"></path><path d="M506.88 655.36c-20.48 0-38.4 17.92-38.4 38.4l0 38.4c0 20.48 17.92 38.4 38.4 38.4 20.48 0 38.4-17.92 38.4-38.4l0-38.4C545.28 673.28 529.92 655.36 506.88 655.36L506.88 655.36z" p-id="8796" fill="#ffffff"></path></svg>